<?xml version="1.0" encoding="utf-8"?>
<!-- Generator: Adobe Illustrator 15.0.0, SVG Export Plug-In . SVG Version: 6.00 Build 0)  -->
<!DOCTYPE svg PUBLIC "-//W3C//DTD SVG 1.1//EN" "http://www.w3.org/Graphics/SVG/1.1/DTD/svg11.dtd">
<svg version="1.1" id="Layer_1" xmlns="http://www.w3.org/2000/svg" xmlns:xlink="http://www.w3.org/1999/xlink" x="0px" y="0px"
	 width="76px" height="76px" viewBox="0 0 76 76" enable-background="new 0 0 76 76" xml:space="preserve">
<g>
	<path fill="#999999" d="M38,3.5c19.023,0,34.5,15.477,34.5,34.5S57.023,72.5,38,72.5S3.5,57.023,3.5,38S18.977,3.5,38,3.5 M38,0.5
		C17.29,0.5,0.5,17.29,0.5,38c0,20.712,16.79,37.5,37.5,37.5c20.712,0,37.5-16.788,37.5-37.5C75.5,17.29,58.712,0.5,38,0.5L38,0.5z"
		/>
</g>
<g>
	<path fill="#CCCCCC" d="M38,3.5c19.023,0,34.5,15.477,34.5,34.5c0,6.02-1.549,11.862-4.498,17.042
		C59.559,51.55,49.025,49.645,38,49.645c-11.026,0-21.559,1.905-30.001,5.397C5.048,49.862,3.5,44.021,3.5,38
		C3.5,18.977,18.977,3.5,38,3.5 M38,0.5C17.29,0.5,0.5,17.29,0.5,38c0,7.714,2.332,14.882,6.325,20.843
		c8.074-3.835,19.06-6.198,31.175-6.198c12.115,0,23.102,2.363,31.176,6.198C73.168,52.882,75.5,45.714,75.5,38
		C75.5,17.29,58.712,0.5,38,0.5L38,0.5z"/>
</g>
<ellipse fill="#CCCCCC" cx="38" cy="27.136" rx="14.5" ry="16.469"/>
<path fill="none" stroke="#999999" stroke-width="3" stroke-miterlimit="10" d="M118.75,69.75"/>
<path fill="#CCCCCC" stroke="#CCCCCC" stroke-miterlimit="10" d="M7.25,56.75c0,0,16.25-5.875,28.875-5.875S68.5,56.75,68.5,56.75
	S55.996,73.875,38,73.875C20.004,73.875,7.25,56.75,7.25,56.75z"/>
<g>
	<path fill="#CCCCCC" d="M38,4.38c18.538,0,33.62,15.082,33.62,33.62S56.538,71.62,38,71.62S4.38,56.538,4.38,38
		S19.462,4.38,38,4.38 M38,0.38C17.223,0.38,0.38,17.223,0.38,38c0,20.777,16.843,37.62,37.62,37.62
		c20.777,0,37.62-16.843,37.62-37.62C75.62,17.223,58.777,0.38,38,0.38L38,0.38z"/>
</g>
</svg>
