<?xml version="1.0" encoding="utf-8"?>
<!-- Generator: Adobe Illustrator 15.0.0, SVG Export Plug-In . SVG Version: 6.00 Build 0)  -->
<!DOCTYPE svg PUBLIC "-//W3C//DTD SVG 1.1//EN" "http://www.w3.org/Graphics/SVG/1.1/DTD/svg11.dtd">
<svg version="1.1" id="Layer_1" xmlns="http://www.w3.org/2000/svg" xmlns:xlink="http://www.w3.org/1999/xlink" x="0px" y="0px"
	 width="76px" height="76px" viewBox="0 0 76 76" enable-background="new 0 0 76 76" xml:space="preserve">
<circle fill="#FF471A" cx="38" cy="38" r="37.584"/>
<path fill="#FFFFFF" d="M39.634,16.585c-0.561,0-1.1,0.015-1.634,0.032c-0.535-0.017-1.073-0.032-1.635-0.032
	c-20.47,0-20.174,11.774-20.021,13.487c-0.021,0.134-0.029,0.214-0.029,0.214h0.051h43.269h0.052c0,0-0.008-0.081-0.029-0.214
	C59.809,28.359,60.104,16.585,39.634,16.585z"/>
<path fill="none" stroke="#FFFFFF" stroke-width="2" stroke-miterlimit="10" d="M14.128,33.417c0,0,2.812,3.707,6.295,0.608
	c3.483-3.101,5.928-2.478,7.654-0.752c1.726,1.725,3.818,3.084,6.055,0.847c2.237-2.237,5.818-2.365,7.543-0.639
	c1.724,1.726,5.399,1.565,6.966,0c1.565-1.565,5.113-1.726,6.646-0.192c1.535,1.534,4.858,2.429,6.583,0.704"/>
<path fill="#FFFFFF" d="M59.637,53.062v-6.506H46.354H29.646H16.364v6.506c0,0-0.182,2.352,2.309,2.352c1.007,0,5.717,0,10.974,0
	c7.757,0,16.707,0,16.707,0c5.258,0,9.967,0,10.973,0C59.817,55.414,59.637,53.062,59.637,53.062z"/>
<path fill="#FF5C33" d="M46.055,45.729v1.809c0,0-0.017,1.787,1.916,1.787s1.897-1.779,1.897-1.779v-1.816H46.055z"/>
<path fill="#FF5C33" d="M42.837,46.117v2.641c0,0-0.017,1.787,1.915,1.787c1.934,0,1.898-1.779,1.898-1.779v-2.648H42.837z"/>
<g>
	<ellipse fill="#FF5C33" cx="38" cy="23.883" rx="0.672" ry="1.666"/>
	
		<ellipse transform="matrix(-0.7071 0.7071 -0.7071 -0.7071 67.4557 19.8245)" fill="#FF5C33" cx="29.622" cy="23.883" rx="1.666" ry="0.672"/>
	
		<ellipse transform="matrix(0.7072 0.707 -0.707 0.7072 30.4654 -25.7966)" fill="#FF5C33" cx="46.376" cy="23.882" rx="1.666" ry="0.672"/>
</g>
<path fill="#FFFFFF" stroke="#FF5C33" stroke-miterlimit="10" d="M59.867,36.84H49.21H26.79H16.132c0,0-2.63,0.137-2.63,3.736
	c0,3.598,2.214,3.873,2.214,3.873H26.79h22.42h11.072c0,0,2.215-0.275,2.215-3.873C62.497,36.977,59.867,36.84,59.867,36.84z"/>
<polygon fill="#FF5C33" points="23.502,36.84 27.447,41.477 40.526,36.84 "/>
</svg>
