<?xml version="1.0" encoding="utf-8"?>
<!-- Generator: Adobe Illustrator 15.0.0, SVG Export Plug-In . SVG Version: 6.00 Build 0)  -->
<!DOCTYPE svg PUBLIC "-//W3C//DTD SVG 1.1//EN" "http://www.w3.org/Graphics/SVG/1.1/DTD/svg11.dtd">
<svg version="1.1" id="Layer_1" xmlns="http://www.w3.org/2000/svg" xmlns:xlink="http://www.w3.org/1999/xlink" x="0px" y="0px"
	 width="140px" height="140px" viewBox="0 0 140 140" enable-background="new 0 0 140 140" xml:space="preserve">
<path stroke="#FF5C33" stroke-miterlimit="10" d="M-488.564,67.382"/>
<g>
	<circle fill="#FF5C33" cx="70" cy="70" r="69.098"/>
	<path fill="#FFFFFF" stroke="#FF5C33" stroke-miterlimit="10" d="M110.203,67.867H90.609H49.388H29.794c0,0-4.834,0.251-4.834,6.87
		c0,6.613,4.07,7.12,4.07,7.12h20.357h41.221h20.355c0,0,4.072-0.507,4.072-7.12C115.037,68.118,110.203,67.867,110.203,67.867z"/>
	<path opacity="0.1" d="M26.345,78.933c1.254,2.523,3.095,2.456,3.095,2.456h20.155h40.809h20.152c0,0,1.646,0.159,2.867-1.96
		c0.844-1.461-22.434-1.824-45.423-1.83C46.333,77.593,25.638,77.51,26.345,78.933z"/>
	<path fill="#FFFFFF" d="M109.779,97.692V85.731H85.357H54.641H30.22v11.961c0,0-0.334,4.324,4.246,4.324c1.851,0,10.512,0,20.175,0
		c14.263,0,30.716,0,30.716,0c9.666,0,18.324,0,20.174,0C110.111,102.017,109.779,97.692,109.779,97.692z"/>
	<path fill="#FFFFFF" d="M73.002,30.629c-1.029,0-2.02,0.027-3.002,0.059c-0.984-0.032-1.974-0.059-3.006-0.059
		c-37.634,0-37.09,21.646-36.811,24.796c-0.037,0.248-0.053,0.395-0.053,0.395h0.094h79.549h0.096c0,0-0.016-0.146-0.055-0.395
		C110.096,52.275,110.639,30.629,73.002,30.629z"/>
	<path fill="none" stroke="#FFFFFF" stroke-width="2" stroke-miterlimit="10" d="M26.11,61.574c0,0,5.17,6.815,11.575,1.118
		c6.404-5.701,10.898-4.557,14.072-1.383c3.172,3.172,7.02,5.67,11.131,1.558c4.113-4.114,10.698-4.349,13.87-1.177
		c3.168,3.175,9.926,2.881,12.807,0c2.879-2.875,9.4-3.172,12.219-0.352c2.824,2.82,8.934,4.465,12.104,1.293"/>
	<g>
		<path fill="#FF5C33" d="M70,47.108c-0.683,0-1.235-1.371-1.235-3.062c0-1.693,0.553-3.063,1.235-3.063
			c0.679,0,1.235,1.372,1.235,3.063C71.232,45.737,70.678,47.108,70,47.108z"/>
		
			<ellipse transform="matrix(-0.707 0.7072 -0.7072 -0.707 124.3455 36.577)" fill="#FF5C33" cx="54.596" cy="44.045" rx="3.062" ry="1.234"/>
		
			<ellipse transform="matrix(0.7072 0.707 -0.707 0.7072 56.1417 -47.4812)" fill="#FF5C33" cx="85.399" cy="44.045" rx="3.064" ry="1.236"/>
	</g>
	<polygon fill="#FF5C33" points="43.345,68.18 50.597,76.704 74.645,68.18 	"/>
	<path opacity="0.1" d="M109.779,85.62h-19.6H49.371H30.218c0,0,18.566,1.784,41.555,1.79
		C93.441,87.416,109.779,85.62,109.779,85.62z"/>
	<path opacity="0.1" d="M30.219,55.819h19.599h40.809h19.152c0,0-18.566-0.889-41.555-0.895
		C46.556,54.919,30.219,55.819,30.219,55.819z"/>
	<path fill="#FF5C33" d="M84.809,84.209v3.325c0,0-0.031,3.286,3.521,3.286s3.49-3.271,3.49-3.271v-3.34H84.809z"/>
	<path fill="#FF5C33" d="M78.893,84.924v4.855c0,0-0.031,3.285,3.521,3.285c3.555,0,3.488-3.271,3.488-3.271v-4.869H78.893z"/>
	<polygon opacity="0.15" points="43.345,68.18 50.597,76.704 74.645,68.18 	"/>
</g>
</svg>
