<?xml version="1.0" encoding="utf-8"?>
<!-- Generator: Adobe Illustrator 15.0.0, SVG Export Plug-In . SVG Version: 6.00 Build 0)  -->
<!DOCTYPE svg PUBLIC "-//W3C//DTD SVG 1.1//EN" "http://www.w3.org/Graphics/SVG/1.1/DTD/svg11.dtd">
<svg version="1.1" id="Layer_1" xmlns="http://www.w3.org/2000/svg" xmlns:xlink="http://www.w3.org/1999/xlink" x="0px" y="0px"
	 width="76px" height="76px" viewBox="0 0 76 76" enable-background="new 0 0 76 76" xml:space="preserve">
<circle fill="#E62E00" cx="38" cy="38" r="37.584"/>
<g>
	<path fill="#FFFFFF" d="M39.753,15.171c-0.602,0-1.18,0.016-1.753,0.034c-0.574-0.019-1.151-0.034-1.754-0.034
		c-21.961,0-21.644,12.632-21.48,14.47c-0.022,0.144-0.031,0.23-0.031,0.23h0.055H61.21h0.056c0,0-0.009-0.086-0.031-0.23
		C61.397,27.803,61.715,15.171,39.753,15.171z"/>
	<path fill="none" stroke="#FFFFFF" stroke-width="2" stroke-miterlimit="10" d="M12.389,33.229c0,0,3.017,3.977,6.754,0.652
		c3.737-3.327,6.36-2.658,8.212-0.807c1.852,1.851,4.097,3.309,6.496,0.909c2.4-2.4,6.241-2.537,8.093-0.686
		c1.85,1.852,5.793,1.68,7.474,0c1.68-1.68,5.485-1.852,7.131-0.206c1.646,1.646,5.212,2.606,7.062,0.755"/>
	<g>
		<path fill="#FFFFFF" d="M61.213,54.305v-6.979H46.962H29.038H14.787v6.979c0,0-0.195,2.524,2.478,2.524c1.08,0,6.134,0,11.773,0
			c8.322,0,17.924,0,17.924,0c5.641,0,10.693,0,11.772,0C61.407,56.829,61.213,54.305,61.213,54.305z"/>
		<path fill="#E62E00" d="M46.642,46.437v1.941c0,0-0.018,1.918,2.056,1.918s2.035-1.91,2.035-1.91v-1.949H46.642z"/>
		<path fill="#E62E00" d="M43.189,46.854v2.832c0,0-0.018,1.918,2.055,1.918c2.074,0,2.036-1.909,2.036-1.909v-2.841H43.189z"/>
	</g>
	<g>
		<ellipse fill="#E62E00" cx="38" cy="23" rx="0.721" ry="1.787"/>
		
			<ellipse transform="matrix(-0.7071 0.7071 -0.7071 -0.7071 65.7896 18.7491)" fill="#E62E00" cx="29.012" cy="23" rx="1.787" ry="0.721"/>
		
			<ellipse transform="matrix(0.7072 0.707 -0.707 0.7072 30.0203 -26.4867)" fill="#E62E00" cx="46.987" cy="22.999" rx="1.788" ry="0.72"/>
	</g>
	<g>
		<path fill="#FFFFFF" stroke="#E62E00" stroke-miterlimit="10" d="M61.46,36.9H50.026H25.973H14.539c0,0-2.821,0.147-2.821,4.009
			c0,3.859,2.375,4.156,2.375,4.156h11.88h24.054h11.879c0,0,2.377-0.297,2.377-4.156C64.282,37.048,61.46,36.9,61.46,36.9z"/>
		<polygon fill="#E62E00" points="22.446,36.9 26.678,41.875 40.71,36.9 		"/>
	</g>
</g>
</svg>
