<?xml version="1.0" encoding="utf-8"?>
<!-- Generator: Adobe Illustrator 15.0.0, SVG Export Plug-In . SVG Version: 6.00 Build 0)  -->
<!DOCTYPE svg PUBLIC "-//W3C//DTD SVG 1.1//EN" "http://www.w3.org/Graphics/SVG/1.1/DTD/svg11.dtd">
<svg version="1.1" id="Layer_1" xmlns="http://www.w3.org/2000/svg" xmlns:xlink="http://www.w3.org/1999/xlink" x="0px" y="0px"
	 width="76px" height="76px" viewBox="0 0 76 76" enable-background="new 0 0 76 76" xml:space="preserve">
<circle fill="#E62E00" cx="38" cy="38" r="37.584"/>
<path fill="#FFFFFF" d="M39.9,14.357c-0.652,0-1.278,0.017-1.9,0.037c-0.623-0.02-1.249-0.037-1.901-0.037
	c-23.806,0-23.462,13.693-23.286,15.686c-0.024,0.156-0.034,0.249-0.034,0.249h0.06h50.32h0.061c0,0-0.01-0.093-0.034-0.249
	C63.363,28.051,63.707,14.357,39.9,14.357z"/>
<path fill="none" stroke="#FFFFFF" stroke-width="2" stroke-miterlimit="10" d="M10.237,33.933c0,0,3.27,4.312,7.321,0.707
	c4.052-3.606,6.896-2.881,8.902-0.874c2.007,2.006,4.441,3.587,7.042,0.985c2.602-2.602,6.765-2.75,8.772-0.743
	c2.006,2.007,6.28,1.821,8.102,0s5.946-2.007,7.73-0.223c1.785,1.784,5.649,2.825,7.656,0.818"/>
<path fill="#FFFFFF" d="M63.163,56.779v-7.565H47.715H28.286H12.837v7.565c0,0-0.211,2.736,2.686,2.736c1.17,0,6.649,0,12.763,0
	c9.021,0,19.429,0,19.429,0c6.114,0,11.592,0,12.762,0C63.374,59.516,63.163,56.779,63.163,56.779z"/>
<path fill="#E62E00" d="M47.368,48.25v2.104c0,0-0.02,2.079,2.228,2.079c2.248,0,2.207-2.07,2.207-2.07V48.25H47.368z"/>
<path fill="#E62E00" d="M43.626,48.703v3.069c0,0-0.02,2.08,2.227,2.08c2.249,0,2.208-2.07,2.208-2.07v-3.079H43.626z"/>
<ellipse fill="#E62E00" cx="38" cy="22.844" rx="0.781" ry="1.938"/>
<ellipse transform="matrix(-0.7072 0.707 -0.707 -0.7072 64.3913 19.0206)" fill="#E62E00" cx="28.257" cy="22.844" rx="1.937" ry="0.781"/>
<ellipse transform="matrix(0.7071 0.7071 -0.7071 0.7071 30.136 -27.0682)" fill="#E62E00" cx="47.742" cy="22.843" rx="1.938" ry="0.782"/>
<path fill="#FFFFFF" stroke="#E62E00" stroke-miterlimit="10" d="M63.432,37.912H51.037H24.962H12.568c0,0-3.058,0.16-3.058,4.346
	c0,4.184,2.575,4.506,2.575,4.506h12.877h26.075h12.877c0,0,2.576-0.322,2.576-4.506C66.49,38.072,63.432,37.912,63.432,37.912z"/>
<polygon fill="#E62E00" points="21.14,37.912 25.727,43.305 40.938,37.912 "/>
</svg>
