<?xml version="1.0" encoding="utf-8"?>
<!-- Generator: Adobe Illustrator 15.0.0, SVG Export Plug-In . SVG Version: 6.00 Build 0)  -->
<!DOCTYPE svg PUBLIC "-//W3C//DTD SVG 1.1//EN" "http://www.w3.org/Graphics/SVG/1.1/DTD/svg11.dtd">
<svg version="1.1" id="Layer_1" xmlns="http://www.w3.org/2000/svg" xmlns:xlink="http://www.w3.org/1999/xlink" x="0px" y="0px"
	 width="140px" height="140px" viewBox="0 0 140 140" enable-background="new 0 0 140 140" xml:space="preserve">
<path stroke="#FF5C33" stroke-miterlimit="10" d="M-488.564,67.382"/>
<g>
	<circle fill="#FF5C33" cx="70" cy="70" r="69.459"/>
	<circle opacity="0.15" cx="70" cy="43.223" r="14.333"/>
	<path fill="#FFFFFF" d="M70.002,20.356c-12.464,0-22.571,10.106-22.571,22.568c0,12.466,22.571,53.905,22.571,53.905
		s22.567-41.439,22.567-53.905C92.569,30.463,82.468,20.356,70.002,20.356z M70,53.333c-6.164,0-11.16-4.995-11.16-11.159
		c0-6.16,4.996-11.153,11.16-11.153c6.161,0,11.159,4.991,11.159,11.153C81.159,48.338,76.161,53.333,70,53.333z"/>
	<g>
		<ellipse fill="#FFFFFF" cx="70" cy="114.349" rx="28.357" ry="5.544"/>
	</g>
	<g opacity="0.1">
		<ellipse cx="70" cy="114.349" rx="28.357" ry="5.544"/>
	</g>
</g>
</svg>
