<?xml version="1.0" encoding="utf-8"?>
<!-- Generator: Adobe Illustrator 15.0.0, SVG Export Plug-In . SVG Version: 6.00 Build 0)  -->
<!DOCTYPE svg PUBLIC "-//W3C//DTD SVG 1.1//EN" "http://www.w3.org/Graphics/SVG/1.1/DTD/svg11.dtd">
<svg version="1.1" id="Layer_1" xmlns="http://www.w3.org/2000/svg" xmlns:xlink="http://www.w3.org/1999/xlink" x="0px" y="0px"
	 width="76px" height="76px" viewBox="0 0 76 76" enable-background="new 0 0 76 76" xml:space="preserve">
<g>
	<g>
		<path fill="#FFFFFF" d="M27.844,8c-2.314,0-4.208,1.69-4.208,3.756c0,2.066,1.894,3.756,4.208,3.756h20.312
			c2.314,0,4.208-1.69,4.208-3.756C52.364,9.69,50.471,8,48.156,8H27.844z"/>
	</g>
	<rect x="23.636" y="12.188" fill="#FFFFFF" width="28.729" height="3.324"/>
	<g>
		<path fill="#FFFFFF" d="M48.156,64.494c2.314,0,4.208-1.69,4.208-3.756s-1.894-3.756-4.208-3.756H27.844
			c-2.314,0-4.208,1.69-4.208,3.756s1.894,3.756,4.208,3.756H48.156z"/>
	</g>
	<rect x="23.636" y="55.083" fill="#FFFFFF" width="28.729" height="5.323"/>
	<path fill="#FFFFFF" d="M23.627,12.505v42.984h28.745V12.505H23.627z M50.744,54.668H25.255V16.569h25.489V54.668z"/>
</g>
<path opacity="0.46" d="M42.146,12.542c0,0.265-0.215,0.479-0.48,0.479h-7.333c-0.265,0-0.479-0.214-0.479-0.479l0,0
	c0-0.265,0.214-0.479,0.479-0.479h7.333C41.932,12.062,42.146,12.277,42.146,12.542L42.146,12.542z"/>
<circle opacity="0.46" cx="38" cy="59.438" r="2.438"/>
</svg>
