<?xml version="1.0" encoding="utf-8"?>
<!-- Generator: Adobe Illustrator 15.0.0, SVG Export Plug-In . SVG Version: 6.00 Build 0)  -->
<!DOCTYPE svg PUBLIC "-//W3C//DTD SVG 1.1//EN" "http://www.w3.org/Graphics/SVG/1.1/DTD/svg11.dtd">
<svg version="1.1" id="Layer_1" xmlns="http://www.w3.org/2000/svg" xmlns:xlink="http://www.w3.org/1999/xlink" x="0px" y="0px"
	 width="140px" height="140px" viewBox="0 0 140 140" enable-background="new 0 0 140 140" xml:space="preserve">
<path fill="#FF5C33" d="M139.5,70c0,38.382-31.119,69.501-69.5,69.501c-38.384,0-69.501-31.119-69.501-69.501
	c0-38.384,31.117-69.5,69.501-69.5C108.381,0.499,139.5,31.615,139.5,70z"/>
<g>
	<path opacity="0.15" d="M55.141,104H93V33H81.843C81.843,33,65.102,62,55.141,104z"/>
	<g>
		<g>
			<path fill="#FFFFFF" d="M48.877,20.187c-2.314,0-4.208,1.894-4.208,4.208v4.832c0,2.314,1.894,4.208,4.208,4.208h42.248
				c2.314,0,4.208-1.894,4.208-4.208v-4.832c0-2.314-1.894-4.208-4.208-4.208H48.877z"/>
		</g>
		<rect x="44.669" y="27.573" fill="#FFFFFF" width="50.664" height="5.861"/>
		<g>
			<path fill="#FFFFFF" d="M91.125,119.813c2.314,0,4.208-1.894,4.208-4.208v-4.831c0-2.314-1.894-4.208-4.208-4.208H48.877
				c-2.314,0-4.208,1.894-4.208,4.208v4.831c0,2.314,1.894,4.208,4.208,4.208H91.125z"/>
		</g>
		<rect x="44.669" y="103.217" fill="#FFFFFF" width="50.664" height="9.388"/>
		<path fill="#FFFFFF" d="M44.654,28.131v75.803h50.691V28.131H44.654z M92.476,102.485H47.526V35.298h44.949V102.485z"/>
	</g>
	<path opacity="0.46" d="M77.312,28.196c0,0.467-0.378,0.845-0.848,0.845h-12.93c-0.468,0-0.846-0.378-0.846-0.845l0,0
		c0-0.468,0.378-0.846,0.846-0.846h12.93C76.935,27.351,77.312,27.729,77.312,28.196L77.312,28.196z"/>
	<circle opacity="0.46" cx="70" cy="110.896" r="4.298"/>
</g>
<path stroke="#FF5C33" stroke-miterlimit="10" d="M-488.564,67.382"/>
</svg>
