<?xml version="1.0" encoding="utf-8"?>
<!-- Generator: Adobe Illustrator 15.0.0, SVG Export Plug-In . SVG Version: 6.00 Build 0)  -->
<!DOCTYPE svg PUBLIC "-//W3C//DTD SVG 1.1//EN" "http://www.w3.org/Graphics/SVG/1.1/DTD/svg11.dtd">
<svg version="1.1" id="Layer_1" xmlns="http://www.w3.org/2000/svg" xmlns:xlink="http://www.w3.org/1999/xlink" x="0px" y="0px"
	 width="269px" height="136px" viewBox="0 0 269 136" enable-background="new 0 0 269 136" xml:space="preserve">
<g>
	<path fill="#999999" d="M255.014,118h-34.35c1.432,8,8.566,14.437,17.175,14.437S253.582,126,255.014,118L255.014,118z"/>
</g>
<g>
	<path fill="#CCCCCC" d="M219.995,89.945c-7.479,0-13.68,3.055-14.924,8.055h29.848C233.674,93,227.475,89.945,219.995,89.945
		L219.995,89.945z"/>
</g>
<polygon fill="#666666" stroke="#666666" stroke-width="6" stroke-linejoin="round" stroke-miterlimit="10" points="89,4 6,4 
	40.364,35 42.704,80.999 50.907,83.839 57.068,92.38 136.913,92.87 118.451,31.867 "/>
<polygon fill="#1A1A1A" points="123,47 123,38 91,38 88,38 88,36 39,36 39,57 81,57 81,74 91,74 91,49 115,49 115,74 124,74 124,47 
	"/>
<polygon fill="#666666" stroke="#666666" stroke-width="6" stroke-linejoin="round" stroke-miterlimit="10" points="160.161,28.283 
	177.375,45 250.913,45.125 248.451,35.867 171.253,35.342 "/>
<polygon fill="#999999" stroke="#999999" stroke-miterlimit="10" points="239.001,51.5 209.361,51.5 175.749,51.5 174.999,44.5 
	208,44.5 237.334,44.5 "/>
<polygon fill="none" stroke="#CCCCCC" stroke-width="6" stroke-linejoin="round" stroke-miterlimit="10" points="5,3 89,3 
	122.667,36 41,36 "/>
<path fill="none" stroke="#0071BC" stroke-width="6" stroke-linejoin="round" stroke-miterlimit="10" d="M44,37.75"/>
<polygon fill="none" stroke="#CCCCCC" stroke-width="6" stroke-linejoin="round" stroke-miterlimit="10" points="147,36 124,36 
	124,114 147,114 147,68.5 "/>
<polyline fill="none" stroke="#CCCCCC" stroke-width="6" stroke-linejoin="round" stroke-miterlimit="10" points="130,114 23,114 
	23,18 "/>
<line fill="none" stroke="#CCCCCC" stroke-width="6" stroke-linejoin="round" stroke-miterlimit="10" x1="25.75" y1="3" x2="60.833" y2="36"/>
<line fill="none" stroke="#CCCCCC" stroke-width="6" stroke-linejoin="round" stroke-miterlimit="10" x1="46.75" y1="3" x2="81.833" y2="36"/>
<line fill="none" stroke="#CCCCCC" stroke-width="6" stroke-linejoin="round" stroke-miterlimit="10" x1="67.75" y1="3" x2="102.833" y2="36"/>
<polyline fill="none" stroke="#CCCCCC" stroke-width="6" stroke-linejoin="round" stroke-miterlimit="10" points="164,63 
	174.625,74 265,74 254,63 "/>
<polyline fill="none" stroke="#CCCCCC" stroke-width="6" stroke-linejoin="round" stroke-miterlimit="10" points="265,74 265,116 
	196.333,116 175,116 175,74 "/>
<line fill="none" stroke="#CCCCCC" stroke-width="6" stroke-linejoin="round" stroke-miterlimit="10" x1="163.167" y1="114" x2="175" y2="116"/>
<line fill="none" stroke="#CCCCCC" stroke-width="5" stroke-linejoin="round" stroke-miterlimit="10" x1="206.137" y1="34" x2="208.863" y2="54"/>
<line fill="none" stroke="#CCCCCC" stroke-width="6" stroke-linejoin="round" stroke-miterlimit="10" x1="149" y1="69" x2="126" y2="69"/>
<polyline fill="none" stroke="#CCCCCC" stroke-width="6" stroke-linejoin="round" stroke-miterlimit="10" points="39,34 39,85 
	124,85 "/>
<g>
	<path fill="#CCCCCC" d="M186.187,94.166c-2.286,0-4.146-1.859-4.146-4.146s1.859-4.146,4.146-4.146s4.146,1.859,4.146,4.146
		S188.473,94.166,186.187,94.166z"/>
	<path fill="#CCCCCC" d="M186.187,87.875c1.183,0,2.146,0.963,2.146,2.146s-0.963,2.146-2.146,2.146s-2.146-0.963-2.146-2.146
		S185.004,87.875,186.187,87.875 M186.187,83.875c-3.394,0-6.146,2.752-6.146,6.146s2.752,6.146,6.146,6.146
		s6.146-2.752,6.146-6.146S189.58,83.875,186.187,83.875L186.187,83.875z"/>
</g>
<g>
	<path fill="#CCCCCC" d="M254.187,94.166c-2.286,0-4.146-1.859-4.146-4.146s1.859-4.146,4.146-4.146s4.146,1.859,4.146,4.146
		S256.473,94.166,254.187,94.166z"/>
	<path fill="#CCCCCC" d="M254.187,87.875c1.183,0,2.146,0.963,2.146,2.146s-0.963,2.146-2.146,2.146s-2.146-0.963-2.146-2.146
		S253.004,87.875,254.187,87.875 M254.187,83.875c-3.394,0-6.146,2.752-6.146,6.146s2.752,6.146,6.146,6.146
		s6.146-2.752,6.146-6.146S257.58,83.875,254.187,83.875L254.187,83.875z"/>
</g>
<rect x="197" y="83" fill="none" stroke="#CCCCCC" stroke-width="6" stroke-linejoin="round" stroke-miterlimit="10" width="46" height="32"/>
<path fill="none" stroke="#CCCCCC" stroke-width="4" stroke-linejoin="round" stroke-miterlimit="10" d="M237,91"/>
<path fill="none" stroke="#CCCCCC" stroke-width="4" stroke-linejoin="round" stroke-miterlimit="10" d="M203,91"/>
<line fill="none" stroke="#CCCCCC" stroke-width="6" stroke-linejoin="round" stroke-miterlimit="10" x1="205" y1="104" x2="235" y2="104"/>
<circle fill="#333333" stroke="#CCCCCC" stroke-miterlimit="10" cx="149.068" cy="116.35" r="11.646"/>
<polyline fill="none" stroke="#CCCCCC" stroke-width="6" stroke-miterlimit="10" points="41,74 45.334,74 126,74 "/>
<path fill="none" d="M46.167,74"/>
<rect x="90" y="49" fill="#666666" width="26" height="22"/>
<g>
	<path fill="#CCCCCC" d="M148.912,108.055c4.351,0,7.891,3.539,7.891,7.889c0,4.351-3.54,7.891-7.891,7.891s-7.89-3.54-7.89-7.891
		C141.022,111.594,144.562,108.055,148.912,108.055 M148.912,97.055c-10.432,0-18.889,8.457-18.889,18.889
		c0,10.434,8.458,18.891,18.889,18.891c10.434,0,18.891-8.457,18.891-18.891C167.803,105.512,159.346,97.055,148.912,97.055
		L148.912,97.055z"/>
</g>
<circle fill="#333333" stroke="#CCCCCC" stroke-miterlimit="10" cx="54.069" cy="115.35" r="11.646"/>
<g>
	<path fill="#CCCCCC" d="M53.912,107.055c4.351,0,7.89,3.539,7.89,7.889c0,4.351-3.54,7.891-7.89,7.891
		c-4.35,0-7.889-3.54-7.889-7.891C46.023,110.594,49.562,107.055,53.912,107.055 M53.912,96.055
		c-10.431,0-18.889,8.457-18.889,18.889c0,10.434,8.458,18.891,18.889,18.891c10.433,0,18.89-8.457,18.89-18.891
		C72.802,104.512,64.345,96.055,53.912,96.055L53.912,96.055z"/>
</g>
<ellipse fill="#999999" stroke="#999999" stroke-miterlimit="10" cx="131.125" cy="77.875" rx="2.125" ry="2.875"/>
<path fill="#B3B3B3" stroke="#CCCCCC" stroke-width="6" stroke-linejoin="round" stroke-miterlimit="10" d="M170,34"/>
<path fill="#B3B3B3" stroke="#CCCCCC" stroke-width="6" stroke-linejoin="round" stroke-miterlimit="10" d="M170,34"/>
<polyline fill="none" stroke="#CCCCCC" stroke-width="6" stroke-linejoin="round" stroke-miterlimit="10" points="249,20 
	156.215,20 164,63 254,63 248.75,34 "/>
<polygon fill="none" stroke="#CCCCCC" stroke-width="6" stroke-linejoin="round" stroke-miterlimit="10" points="239.001,53 
	209.361,53 175.749,53 172.999,35 206,35 235.334,35 "/>
<polyline fill="none" stroke="#CCCCCC" stroke-width="6" stroke-linejoin="round" stroke-miterlimit="10" points="154.93,10 
	156.215,19.5 170,34 260.75,34 247.25,19.5 246,10 96,10 "/>
<rect x="42" y="51" fill="#666666" width="42" height="20"/>
</svg>
