<?xml version="1.0" encoding="utf-8"?>
<!-- Generator: Adobe Illustrator 15.0.0, SVG Export Plug-In . SVG Version: 6.00 Build 0)  -->
<!DOCTYPE svg PUBLIC "-//W3C//DTD SVG 1.1//EN" "http://www.w3.org/Graphics/SVG/1.1/DTD/svg11.dtd">
<svg version="1.1" id="Layer_1" xmlns="http://www.w3.org/2000/svg" xmlns:xlink="http://www.w3.org/1999/xlink" x="0px" y="0px"
	 width="76px" height="76px" viewBox="0 0 76 76" enable-background="new 0 0 76 76" xml:space="preserve">
<g>
	<path d="M25.465,22.72l9.961,22.164c0,0,1.867,3.278,0.415,4.732c-1.452,1.452-0.747,1.078-2.823,1.078
		c-2.075,0-4.398,0.748-4.398,2.988c0,2.242,1.327,4.068,4.896,4.068c3.57,0,6.144-1.079,7.555-4.15
		c1.41-3.072,7.305-23.575,7.305-23.575l2.573-8.965c0,0,0.664-2.241,0-3.57c-0.664-1.327-1.993-2.075-3.071-2.075
		c-1.079,0-1.909,0.415-2.324,1.328s-5.562,19.01-5.562,19.01l-9.132-18.595c0,0-0.83-1.411-2.324-1.411s-3.486,1.162-3.735,3.238
		C24.551,21.061,25.465,22.72,25.465,22.72z"/>
	<g>
		<path d="M66,8v59H10V8H66 M74,0H2v75h72V0L74,0z"/>
	</g>
</g>
</svg>
